<?xml version="1.0" encoding="UTF-8"?>
<svg version="1.1" xmlns="http://www.w3.org/2000/svg" width="229" height="220">
<path d="M0 0 C75.57 0 151.14 0 229 0 C229 72.6 229 145.2 229 220 C153.43 220 77.86 220 0 220 C0 147.4 0 74.8 0 0 Z " fill="#FEFEFE" transform="translate(0,0)"/>
<path d="M0 0 C1.43845027 1.20360125 2.85450394 2.43434962 4.25 3.6875 C5.48169922 4.77998047 5.48169922 4.77998047 6.73828125 5.89453125 C20.62269132 18.93618502 28.93853223 36.35305132 29.5847168 55.34814453 C29.90200171 74.75828975 24.14198496 93.47570771 10.4543457 107.65966797 C2.20397397 115.83785425 -5.89622584 121.44637206 -16.75 125.6875 C-17.77222656 126.10257813 -18.79445313 126.51765625 -19.84765625 126.9453125 C-36.70900597 132.80478519 -56.79149182 131.42879966 -72.80810547 123.97119141 C-79.73784962 120.60722251 -86.0316967 116.89966346 -91.75 111.6875 C-92.56855469 110.96046875 -93.38710937 110.2334375 -94.23046875 109.484375 C-104.65895714 99.70273687 -110.69753698 88.30566061 -114.75 74.6875 C-114.93546387 74.06697754 -115.12092773 73.44645508 -115.31201172 72.80712891 C-120.0407927 55.74386478 -116.46548477 37.23889726 -108.02099609 21.99487305 C-98.02008254 4.91130796 -82.21660964 -7.68934756 -63 -12.8125 C-41.16436558 -17.94777379 -18.01759131 -13.35569705 0 0 Z " fill="#0587D1" transform="translate(157.75,52.3125)"/>
<path d="M0 0 C2.11720305 1.84138771 2.11720305 1.84138771 5.0234375 3.69921875 C5.0234375 4.35921875 5.0234375 5.01921875 5.0234375 5.69921875 C5.6834375 5.69921875 6.3434375 5.69921875 7.0234375 5.69921875 C7.0234375 6.35921875 7.0234375 7.01921875 7.0234375 7.69921875 C7.6834375 7.69921875 8.3434375 7.69921875 9.0234375 7.69921875 C10.68196634 9.5790869 12.2046511 11.45195925 13.7109375 13.44921875 C14.15791992 14.04049561 14.60490234 14.63177246 15.06542969 15.2409668 C28.1116528 32.78499941 34.38986697 50.73499933 34.3359375 72.51171875 C34.35205078 73.80142578 34.36816406 75.09113281 34.38476562 76.41992188 C34.39057789 87.91076779 32.02364456 97.81968084 27.8359375 108.44921875 C27.56330078 109.15820312 27.29066406 109.8671875 27.00976562 110.59765625 C26.35390357 112.30059632 25.68963908 114.00029692 25.0234375 115.69921875 C24.3634375 115.69921875 23.7034375 115.69921875 23.0234375 115.69921875 C22.78753906 116.55902344 22.55164063 117.41882813 22.30859375 118.3046875 C20.88897368 122.05438307 18.93127855 124.90941912 16.4609375 128.01171875 C16.01258545 128.57930908 15.5642334 129.14689941 15.10229492 129.73168945 C3.66118349 143.99926216 -9.89742964 153.30516528 -26.9765625 159.69921875 C-27.78609375 160.01503906 -28.595625 160.33085937 -29.4296875 160.65625 C-51.63985032 168.76535621 -76.61849425 165.6386817 -97.9765625 156.69921875 C-106.03345653 152.88951094 -113.21126103 148.49109555 -119.9765625 142.69921875 C-120.77578125 142.044375 -121.575 141.38953125 -122.3984375 140.71484375 C-139.10664733 126.49729874 -150.86147022 105.48651908 -153.9765625 83.69921875 C-154.99210449 69.18830152 -155.30089289 54.40688922 -149.9765625 40.69921875 C-149.54085937 39.51714844 -149.10515625 38.33507812 -148.65625 37.1171875 C-143.69607356 24.60832723 -136.37960512 14.26003054 -126.9765625 4.69921875 C-126.22890625 3.93867187 -125.48125 3.178125 -124.7109375 2.39453125 C-90.78279177 -30.07313138 -35.37920176 -29.91364401 0 0 Z M-115.1484375 21.96484375 C-128.73350532 37.86674484 -134.57245322 56.70155171 -133.19970703 77.44335938 C-131.73450714 92.25566458 -124.87330785 106.67829949 -114.9765625 117.69921875 C-114.24824219 118.52035156 -113.51992187 119.34148437 -112.76953125 120.1875 C-100.53960446 133.20772901 -83.45343882 142.22046293 -65.4453125 143.0703125 C-43.91935494 143.51327772 -25.21742863 139.21654101 -9.15649414 123.95410156 C4.80611835 110.17160653 12.84445284 93.16757584 13.44580078 73.46655273 C13.56062564 54.84455376 7.69008685 37.59589397 -4.9765625 23.69921875 C-5.70359375 22.88066406 -6.430625 22.06210937 -7.1796875 21.21875 C-16.96454768 10.78682648 -28.35279759 4.74377396 -41.9765625 0.69921875 C-42.7809375 0.45300781 -43.5853125 0.20679687 -44.4140625 -0.046875 C-70.28645307 -6.55988999 -97.07671559 3.11304751 -115.1484375 21.96484375 Z " fill="#E7E6EE" transform="translate(173.9765625,39.30078125)"/>
<path d="M0 0 C29.37 0 58.74 0 89 0 C90.32 7.59 91.64 15.18 93 23 C95.43630304 31.30470822 95.43630304 31.30470822 100 39 C100.06304004 41.3324816 100.04826553 43.66716591 100 46 C100.00692871 46.67272949 100.01385742 47.34545898 100.02099609 48.03857422 C99.99787325 53.22904454 99.71326053 58.45770596 97 63 C92.25003122 66.82346033 86.11520611 68.3842686 80.38378906 70.19677734 C67.65091106 74.48714693 57.12038557 83.38662062 48 93 C44.30238913 91.41530963 41.68847557 89.08981451 38.6875 86.4375 C28.67898265 77.89747991 17.72377982 71.89641743 5.4375 67.2890625 C4.303125 66.86367187 3.16875 66.43828125 2 66 C1.04540894 65.66246704 1.04540894 65.66246704 0.0715332 65.31811523 C-4.66885638 63.51658405 -4.66885638 63.51658405 -6.26953125 61.01953125 C-6.44871094 60.29121094 -6.62789062 59.56289062 -6.8125 58.8125 C-7.12574219 57.62140625 -7.12574219 57.62140625 -7.4453125 56.40625 C-7.62835938 55.6121875 -7.81140625 54.818125 -8 54 C-8.20367187 53.2884375 -8.40734375 52.576875 -8.6171875 51.84375 C-10.6534507 44.59130572 -10.33812723 40.04522601 -7.125 33.25 C-2.15281903 22.2311169 -1.53774027 12.30192219 0 0 Z " fill="#F9FAF9" transform="translate(69,81)"/>
<path d="M0 0 C34.98 0 69.96 0 106 0 C105.67 3.63 105.34 7.26 105 11 C103.77925781 11.49628906 102.55851562 11.99257812 101.30078125 12.50390625 C83.99079837 19.61235582 69.07791047 27.21517545 56 41 C52.30238913 39.41530963 49.68847557 37.08981451 46.6875 34.4375 C36.67898265 25.89747991 25.72377982 19.89641743 13.4375 15.2890625 C12.303125 14.86367187 11.16875 14.43828125 10 14 C9.36505615 13.77932861 8.7301123 13.55865723 8.07592773 13.33129883 C5.14499167 12.23129973 3.32338159 11.52891274 1.66015625 8.80859375 C1.46292969 8.02613281 1.26570313 7.24367187 1.0625 6.4375 C0.84722656 5.65246094 0.63195313 4.86742187 0.41015625 4.05859375 C0 2 0 2 0 0 Z " fill="#CB231F" transform="translate(61,133)"/>
<path d="M0 0 C2.95106793 1.59410366 5.77901826 3.33021788 8.625 5.10546875 C16.95554299 10.08957391 25.99862397 12.85358948 35.23828125 15.67529297 C38.04672032 16.54919555 40.83467167 17.48785931 43.625 18.41796875 C43.625 23.36796875 43.625 28.31796875 43.625 33.41796875 C13.925 33.41796875 -15.775 33.41796875 -46.375 33.41796875 C-46.375 28.46796875 -46.375 23.51796875 -46.375 18.41796875 C-41.93293362 16.92557491 -37.49210846 15.44446397 -33.015625 14.05859375 C-17.65695912 9.31127037 -17.65695912 9.31127037 -4.3359375 0.5859375 C-2.375 -0.58203125 -2.375 -0.58203125 0 0 Z " fill="#27166F" transform="translate(114.375,46.58203125)"/>
<path d="M0 0 C2.88836557 1.63644241 5.7066391 3.36014046 8.5234375 5.1171875 C16.85398049 10.10129266 25.89706147 12.86530823 35.13671875 15.68701172 C37.94515782 16.5609143 40.73310917 17.49957806 43.5234375 18.4296875 C43.5234375 23.3796875 43.5234375 28.3296875 43.5234375 33.4296875 C14.1534375 33.4296875 -15.2165625 33.4296875 -45.4765625 33.4296875 C-45.4765625 33.0996875 -45.4765625 32.7696875 -45.4765625 32.4296875 C-23.48129602 31.01799579 -1.51068074 29.98154996 20.5234375 29.4296875 C19.58701416 28.965625 18.65059082 28.5015625 17.68579102 28.0234375 C14.85716221 26.59787672 12.16526782 25.07542893 9.4609375 23.4296875 C8.64496094 22.9346875 7.82898438 22.4396875 6.98828125 21.9296875 C5.31295747 20.91015607 3.65561599 19.86060205 2.015625 18.78515625 C-0.58507118 17.37067103 -2.36151553 16.96066115 -5.2890625 16.7421875 C-6.07925781 16.67644531 -6.86945313 16.61070313 -7.68359375 16.54296875 C-8.27527344 16.50558594 -8.86695313 16.46820313 -9.4765625 16.4296875 C-9.4765625 16.0996875 -9.4765625 15.7696875 -9.4765625 15.4296875 C-7.41425982 15.2605968 -5.3517102 15.09451617 -3.2890625 14.9296875 C-2.14050781 14.836875 -0.99195313 14.7440625 0.19140625 14.6484375 C3.5234375 14.4296875 3.5234375 14.4296875 6.3359375 14.5234375 C7.0578125 14.4925 7.7796875 14.4615625 8.5234375 14.4296875 C10.36659421 12.5292408 10.36659421 12.5292408 11.5234375 10.4296875 C8.8834375 10.7596875 6.2434375 11.0896875 3.5234375 11.4296875 C3.5234375 10.7696875 3.5234375 10.1096875 3.5234375 9.4296875 C-3.12706674 9.17977294 -9.04642783 9.69013416 -15.4765625 11.4296875 C-15.8065625 10.7696875 -16.1365625 10.1096875 -16.4765625 9.4296875 C-13.96405251 6.70639647 -11.17163906 4.6821294 -8.1015625 2.6171875 C-7.16570312 1.97136719 -6.22984375 1.32554688 -5.265625 0.66015625 C-2.4765625 -0.5703125 -2.4765625 -0.5703125 0 0 Z " fill="#26126E" transform="translate(114.4765625,46.5703125)"/>
<path d="M0 0 C1.70363822 0.22622081 3.41328701 0.40888473 5.125 0.5625 C6.03507812 0.64628906 6.94515625 0.73007813 7.8828125 0.81640625 C8.58148438 0.87699219 9.28015625 0.93757813 10 1 C10 1.66 10 2.32 10 3 C9.01 3 8.02 3 7 3 C7.33 6.3 7.66 9.6 8 13 C8.99 12.67 9.98 12.34 11 12 C12.512545 17.16044765 13.33500455 20.65998179 12 26 C9.36 26 6.72 26 4 26 C4 24.35 4 22.7 4 21 C2.56344146 20.91868537 1.1255517 20.86066441 -0.3125 20.8125 C-1.11300781 20.77769531 -1.91351563 20.74289063 -2.73828125 20.70703125 C-5.47851584 21.06198392 -6.29171079 21.89366282 -8 24 C-6.68 24.66 -5.36 25.32 -4 26 C-5.98 26 -7.96 26 -10 26 C-11.0024305 20.65370398 -10.84888195 16.37625234 -10 11 C-8.68 11.66 -7.36 12.32 -6 13 C-5.67 10.36 -5.34 7.72 -5 5 C-6.20398438 5.03480469 -7.40796875 5.06960937 -8.6484375 5.10546875 C-10.22394442 5.1336028 -11.79946638 5.16090337 -13.375 5.1875 C-14.1690625 5.21263672 -14.963125 5.23777344 -15.78125 5.26367188 C-17.85586148 5.29004405 -19.93100865 5.15486462 -22 5 C-22.66 4.01 -23.32 3.02 -24 2 C-17.44480047 -0.89199979 -6.74665374 -3.37332687 0 0 Z " fill="#82755C" transform="translate(115,86)"/>
<path d="M0 0 C-0.433125 0.8353125 -0.433125 0.8353125 -0.875 1.6875 C-2.0413253 4.08494645 -3.0339881 6.51596939 -4 9 C-3.46890625 8.69964844 -2.9378125 8.39929688 -2.390625 8.08984375 C-1.68421875 7.70957031 -0.9778125 7.32929687 -0.25 6.9375 C0.44609375 6.55464844 1.1421875 6.17179687 1.859375 5.77734375 C4.36140628 4.8687594 5.5332355 5.11663163 8 6 C6.20963542 6.9765625 4.41927083 7.953125 2.62890625 8.9296875 C0.83381685 9.91410024 0.83381685 9.91410024 0 12 C0.94875 12.103125 1.8975 12.20625 2.875 12.3125 C6 13 6 13 8 16 C7.34 16.33 6.68 16.66 6 17 C6.48855469 17.51304688 6.97710937 18.02609375 7.48046875 18.5546875 C9.53258872 21.8570708 9.36487951 24.26503289 9.3125 28.125 C9.30863281 29.36507812 9.30476563 30.60515625 9.30078125 31.8828125 C9 35 9 35 7 37 C3.46428571 36.46428571 3.46428571 36.46428571 2 35 C1.54296875 32.8203125 1.54296875 32.8203125 1.1875 30.125 C1.05730469 29.24070312 0.92710938 28.35640625 0.79296875 27.4453125 C1 25 1 25 2.98828125 23.1796875 C3.98408203 22.59574219 3.98408203 22.59574219 5 22 C4.67 21.34 4.34 20.68 4 20 C3.195625 19.855625 2.39125 19.71125 1.5625 19.5625 C-1 19 -1 19 -3 16 C-4.9395114 17.9395114 -4.13256629 20.8120712 -4.13671875 23.38867188 C-4.13091797 24.6503418 -4.13091797 24.6503418 -4.125 25.9375 C-4.12886719 26.77474609 -4.13273437 27.61199219 -4.13671875 28.47460938 C-4.13478516 29.67633789 -4.13478516 29.67633789 -4.1328125 30.90234375 C-4.13168457 31.63960693 -4.13055664 32.37687012 -4.12939453 33.13647461 C-4.11341854 35.09331601 -4.11341854 35.09331601 -3 37 C-4.65 37 -6.3 37 -8 37 C-7.67 30.07 -7.34 23.14 -7 16 C-8.32 17.32 -9.64 18.64 -11 20 C-12.33333333 21.33333333 -13.66666667 22.66666667 -15 24 C-14.5020163 20.26512223 -14.12508244 18.18762365 -12 15 C-12.886875 15.309375 -13.77375 15.61875 -14.6875 15.9375 C-17.46709155 16.8290671 -20.13136375 17.49377007 -23 18 C-20.0094833 14.66442368 -17.06815373 12.84916079 -13 11 C-15.31 10.01 -17.62 9.02 -20 8 C-20 7.67 -20 7.34 -20 7 C-12.57142857 6.71428571 -12.57142857 6.71428571 -9 9 C-8.773125 8.2575 -8.54625 7.515 -8.3125 6.75 C-6.65039308 3.26749027 -4.13573795 0 0 0 Z " fill="#0F9546" transform="translate(89,92)"/>
<path d="M0 0 C3.38646809 1.00678781 4.70004326 1.4522529 6.4375 4.625 C6.953125 5.40875 7.46875 6.1925 8 7 C11.12635209 7.41746608 11.12635209 7.41746608 14 7 C14.33 7.66 14.66 8.32 15 9 C14.01 9 13.02 9 12 9 C12.84226928 11.26014889 12.84226928 11.26014889 15.4375 11.875 C18 13 18 13 19.3125 15.125 C19.6528125 16.053125 19.6528125 16.053125 20 17 C18.68 16.67 17.36 16.34 16 16 C16 17.65 16 19.3 16 21 C15.34 20.34 14.68 19.68 14 19 C11.36 18.34 8.72 17.68 6 17 C6 22.94 6 28.88 6 35 C2.535 35.495 2.535 35.495 -1 36 C-0.67 35.34 -0.34 34.68 0 34 C0.66 34 1.32 34 2 34 C2 28.72 2 23.44 2 18 C-3.7018576 19.40371521 -3.7018576 19.40371521 -6 22 C-5.51015625 22.38929687 -5.0203125 22.77859375 -4.515625 23.1796875 C-2.50577133 25.59358392 -2.65963936 27.02563021 -2.75 30.125 C-2.77320313 31.45917969 -2.77320313 31.45917969 -2.796875 32.8203125 C-3 35 -3 35 -4 36 C-6.5 36.125 -6.5 36.125 -9 36 C-10.69669132 34.30330868 -10.21209414 32.19357491 -10.25 29.875 C-10.22348915 24.79154536 -9.3774647 21.4577463 -7 17 C-6.34 17 -5.68 17 -5 17 C-5 16.34 -5 15.68 -5 15 C-6.98 15.99 -6.98 15.99 -9 17 C-8.375 15.0625 -8.375 15.0625 -7 13 C-1.81081081 11.59459459 -1.81081081 11.59459459 1 13 C-1.02633069 8.67628107 -1.02633069 8.67628107 -4 5 C-1.69 5.33 0.62 5.66 3 6 C3 5.01 3 4.02 3 3 C2.01 2.67 1.02 2.34 0 2 C0 1.34 0 0.68 0 0 Z " fill="#67A47C" transform="translate(142,93)"/>
<path d="M0 0 C0.81700882 0.0028299 1.63401764 0.00565979 2.4757843 0.00857544 C5.08426584 0.01976709 7.69240355 0.0448696 10.30078125 0.0703125 C12.0696565 0.08034362 13.83853713 0.08946924 15.60742188 0.09765625 C19.94284074 0.11970308 24.2780027 0.1542258 28.61328125 0.1953125 C28.28328125 3.4953125 27.95328125 6.7953125 27.61328125 10.1953125 C24.87050578 11.42297401 22.12115626 12.6274755 19.36328125 13.8203125 C18.58597656 14.1709375 17.80867188 14.5215625 17.0078125 14.8828125 C15.87666016 15.36621094 15.87666016 15.36621094 14.72265625 15.859375 C14.03139648 16.16311035 13.34013672 16.4668457 12.62792969 16.77978516 C10.61328125 17.1953125 10.61328125 17.1953125 8.39453125 16.45507812 C6.61328125 15.1953125 6.61328125 15.1953125 6.00390625 12.375 C5.9575 11.28445312 5.91109375 10.19390625 5.86328125 9.0703125 C5.8065625 7.97460938 5.74984375 6.87890625 5.69140625 5.75 C5.665625 4.90695313 5.63984375 4.06390625 5.61328125 3.1953125 C4.80503906 3.20691406 3.99679688 3.21851563 3.1640625 3.23046875 C2.09542969 3.23949219 1.02679688 3.24851563 -0.07421875 3.2578125 C-1.65783203 3.27521484 -1.65783203 3.27521484 -3.2734375 3.29296875 C-6.11082137 3.20396675 -8.63061065 2.84471088 -11.38671875 2.1953125 C-7.54999592 -0.36250272 -4.44135888 -0.05775206 0 0 Z " fill="#D6241B" transform="translate(138.38671875,133.8046875)"/>
<path d="M0 0 C3.05717758 1.2086516 5.32345661 2.83461499 7.9375 4.80078125 C10.37688695 6.55953568 12.96860884 7.78628578 15.6875 9.0625 C17.14741962 9.78848544 18.60570607 10.51776263 20.0625 11.25 C20.75085938 11.59417969 21.43921875 11.93835938 22.1484375 12.29296875 C22.65632813 12.54691406 23.16421875 12.80085938 23.6875 13.0625 C23.6875 13.3925 23.6875 13.7225 23.6875 14.0625 C19.13844217 14.20814422 14.58929317 14.35036711 10.04003906 14.48974609 C8.5002979 14.53736366 6.96058277 14.58583276 5.42089844 14.63525391 C-5.16089116 14.97414782 -15.7253252 15.12740775 -26.3125 15.0625 C-23.72445635 13.71122057 -21.36240673 12.74580224 -18.5625 11.8125 C-12.84876064 9.71248759 -8.17301046 6.13564023 -4.125 1.625 C-2.3125 0.0625 -2.3125 0.0625 0 0 Z " fill="#126652" transform="translate(113.3125,62.9375)"/>
<path d="M0 0 C0.70769531 -0.01998047 1.41539063 -0.03996094 2.14453125 -0.06054688 C7.10686555 -0.05592645 9.61407565 0.96099648 13.125 4.4375 C13.455 3.4475 13.785 2.4575 14.125 1.4375 C14.125 2.4275 14.125 3.4175 14.125 4.4375 C14.785 4.4375 15.445 4.4375 16.125 4.4375 C16.455 3.4475 16.785 2.4575 17.125 1.4375 C17.455 5.0675 17.785 8.6975 18.125 12.4375 C15.125 12.4375 15.125 12.4375 13.4375 10.9375 C13.004375 10.4425 12.57125 9.9475 12.125 9.4375 C11.135 9.7675 10.145 10.0975 9.125 10.4375 C7.89530122 13.94940809 7.89530122 13.94940809 7.125 17.4375 C5.475 17.4375 3.825 17.4375 2.125 17.4375 C2.455 15.1275 2.785 12.8175 3.125 10.4375 C0.815 10.4375 -1.495 10.4375 -3.875 10.4375 C-4.205 12.4175 -4.535 14.3975 -4.875 16.4375 C-5.535 15.7775 -6.195 15.1175 -6.875 14.4375 C-7.205 15.0975 -7.535 15.7575 -7.875 16.4375 C-8.535 16.4375 -9.195 16.4375 -9.875 16.4375 C-9.545 15.1175 -9.215 13.7975 -8.875 12.4375 C-9.535 12.4375 -10.195 12.4375 -10.875 12.4375 C-10.95631463 11.00094146 -11.01433559 9.5630517 -11.0625 8.125 C-11.09730469 7.32449219 -11.13210937 6.52398437 -11.16796875 5.69921875 C-10.875 3.4375 -10.875 3.4375 -9.85546875 1.671875 C-6.74814833 -0.26483753 -3.54705209 -0.03515097 0 0 Z " fill="#232320" transform="translate(98.875,134.5625)"/>
<path d="M0 0 C0.31319144 1.39567835 0.62551788 2.79155082 0.9375 4.1875 C1.11152344 4.96480469 1.28554687 5.74210937 1.46484375 6.54296875 C2.00493041 9.02263668 2.50229578 11.51147892 3 14 C-3.27 14 -9.54 14 -16 14 C-16 8.60722586 -15.56439514 5.88873482 -14 1 C-12.68 1 -11.36 1 -10 1 C-10 2.32 -10 3.64 -10 5 C-9.67 3.68 -9.34 2.36 -9 1 C-5.846632 0.29925156 -3.27275026 0 0 0 Z " fill="#EEC645" transform="translate(123,115)"/>
<path d="M0 0 C3.38646809 1.00678781 4.70004326 1.4522529 6.4375 4.625 C6.953125 5.40875 7.46875 6.1925 8 7 C11.12635209 7.41746608 11.12635209 7.41746608 14 7 C14.33 7.66 14.66 8.32 15 9 C14.01 9 13.02 9 12 9 C12.84226928 11.26014889 12.84226928 11.26014889 15.4375 11.875 C18 13 18 13 19.3125 15.125 C19.6528125 16.053125 19.6528125 16.053125 20 17 C18.68 16.67 17.36 16.34 16 16 C16 17.65 16 19.3 16 21 C15.34 20.34 14.68 19.68 14 19 C13.154375 18.835 12.30875 18.67 11.4375 18.5 C10.633125 18.335 9.82875 18.17 9 18 C8.67 17.34 8.34 16.68 8 16 C7.21625 15.87625 6.4325 15.7525 5.625 15.625 C3 15 3 15 1.3125 13.1875 C0.09861528 11.1643588 -0.94569198 9.10861603 -2 7 C-2.66 6.34 -3.32 5.68 -4 5 C-1.69 5.33 0.62 5.66 3 6 C3 5.01 3 4.02 3 3 C2.01 2.67 1.02 2.34 0 2 C0 1.34 0 0.68 0 0 Z " fill="#50996C" transform="translate(142,93)"/>
<path d="M0 0 C5.94 0.33 11.88 0.66 18 1 C18.8372965 6.02377899 19.0861953 10.00067249 19 15 C18.01 15 17.02 15 16 15 C16 13.35 16 11.7 16 10 C12.58357241 9.74984127 12.58357241 9.74984127 9 10 C8.01 11.485 8.01 11.485 7 13 C6.01 13.495 6.01 13.495 5 14 C4.82984375 13.36191406 4.6596875 12.72382813 4.484375 12.06640625 C4.24203125 11.24011719 3.9996875 10.41382813 3.75 9.5625 C3.51796875 8.73878906 3.2859375 7.91507813 3.046875 7.06640625 C2.19229321 4.80004532 2.19229321 4.80004532 -0.109375 4.21484375 C-1.04523438 4.10849609 -1.04523438 4.10849609 -2 4 C-1.34 2.68 -0.68 1.36 0 0 Z " fill="#AC7F61" transform="translate(125,136)"/>
<path d="M0 0 C3.3 0.33 6.6 0.66 10 1 C10.33 3.64 10.66 6.28 11 9 C11.99 8.67 12.98 8.34 14 8 C16.42857143 16.42857143 16.42857143 16.42857143 15 21 C12.69 21 10.38 21 8 21 C8.66 19.68 9.32 18.36 10 17 C10.66 17 11.32 17 12 17 C12 16.34 12 15.68 12 15 C10.906875 15.020625 9.81375 15.04125 8.6875 15.0625 C5 15 5 15 2 14 C2 13.01 2 12.02 2 11 C3.32 10.67 4.64 10.34 6 10 C3 8.66666667 3 8.66666667 0 10 C0 6.7 0 3.4 0 0 Z " fill="#93856B" transform="translate(112,90)"/>
<path d="M0 0 C0.556875 0.45375 1.11375 0.9075 1.6875 1.375 C4.05313439 3.03733768 6.29015658 4.02144543 9 5 C8.34 5.66 7.68 6.32 7 7 C6.34 7.99 5.68 8.98 5 10 C5.99 9.67 6.98 9.34 8 9 C8.495 9.99 8.495 9.99 9 11 C-2.68485544 11.71125207 -14.29204426 12.14534014 -26 12 C-23.43658393 10.66453379 -21.07655039 9.68696623 -18.3125 8.75 C-13.36581062 6.95205075 -9.25748852 4.04528692 -5 1 C-4.67 2.32 -4.34 3.64 -4 5 C-2.68 4.67 -1.36 4.34 0 4 C-0.33 4.99 -0.66 5.98 -1 7 C-1.99 7 -2.98 7 -4 7 C-4 7.99 -4 8.98 -4 10 C-3.01 10 -2.02 10 -1 10 C-0.34 8.68 0.32 7.36 1 6 C1.66 6 2.32 6 3 6 C2.505 5.566875 2.01 5.13375 1.5 4.6875 C0 3 0 3 0 0 Z " fill="#0F6D50" transform="translate(113,66)"/>
<path d="M0 0 C1.70363822 0.22622081 3.41328701 0.40888473 5.125 0.5625 C6.03507812 0.64628906 6.94515625 0.73007813 7.8828125 0.81640625 C8.58148438 0.87699219 9.28015625 0.93757813 10 1 C10 1.66 10 2.32 10 3 C9.01 3 8.02 3 7 3 C7 3.66 7 4.32 7 5 C2.90666095 5.07408587 -1.18641933 5.1285704 -5.28027344 5.16479492 C-6.67324622 5.17989358 -8.06617138 5.20037444 -9.45898438 5.22631836 C-11.45942885 5.26265122 -13.46021827 5.27811192 -15.4609375 5.29296875 C-17.26763916 5.31653442 -17.26763916 5.31653442 -19.11083984 5.34057617 C-20.0642627 5.22818604 -21.01768555 5.1157959 -22 5 C-22.66 4.01 -23.32 3.02 -24 2 C-17.44480047 -0.89199979 -6.74665374 -3.37332687 0 0 Z " fill="#28397B" transform="translate(115,86)"/>
<path d="M0 0 C2.375 2.125 2.375 2.125 4 5 C3.9375 8.1875 3.9375 8.1875 3 11 C-0.49124017 13.32749345 -1.89222251 13.50299316 -6 13 C-8.78506308 11.02113939 -9.81084752 9.84067767 -10.5625 6.5 C-10 4 -10 4 -7.8125 1.6875 C-4.74490745 -0.15305553 -3.48147064 -0.8034163 0 0 Z " fill="#2B1B73" transform="translate(194,74)"/>
<path d="M0 0 C2.33199388 0.07905064 4.66832622 0.08798769 7 0 C5.125 3.875 5.125 3.875 4 5 C1.1136866 5.12794998 -1.73813444 5.18522688 -4.625 5.1875 C-5.81802734 5.20586914 -5.81802734 5.20586914 -7.03515625 5.22460938 C-12.08141572 5.23703859 -16.21799706 4.62177848 -21 3 C-21 2.34 -21 1.68 -21 1 C-15.02195714 -2.44887088 -5.87160014 -3.91440009 0 0 Z " fill="#275C9E" transform="translate(119,57)"/>
<path d="M0 0 C4.52451299 1.44399351 4.52451299 1.44399351 5.9375 3.9375 C5.60416667 10.27083333 5.60416667 10.27083333 2.9375 12.9375 C-3.11490175 13.48771834 -3.11490175 13.48771834 -6 11.8125 C-7.59240283 9.00237736 -7.51569325 7.10985276 -7.0625 3.9375 C-4.87947885 0.66296827 -3.97767861 -0.08117711 0 0 Z " fill="#22136E" transform="translate(44.0625,60.0625)"/>
<path d="M0 0 C6.75177305 -0.643026 6.75177305 -0.643026 10.0625 1.0625 C11.58299975 4.20486615 10.78072633 6.69692708 10 10 C7.67471713 12.32528287 7.15334102 12.29511025 4 12.3125 C3.29875 12.32925781 2.5975 12.34601562 1.875 12.36328125 C1.25625 12.24339844 0.6375 12.12351562 0 12 C-2.31332486 8.53001271 -2.33957563 7.07490752 -2 3 C-1.34 2.01 -0.68 1.02 0 0 Z " fill="#2D1C74" transform="translate(121,23)"/>
<path d="M0 0 C4.84455959 2.37823834 4.84455959 2.37823834 7 4 C7.9375 6.75 7.9375 6.75 8 9 C7.01 9.33 6.02 9.66 5 10 C4.67 11.65 4.34 13.3 4 15 C0.39703406 15.41176754 -0.78402067 15.1535853 -3.8125 13 C-4.534375 12.34 -5.25625 11.68 -6 11 C-5.39305845 7.84669446 -4.3583335 5.81111133 -2.4375 3.25 C-1.98246094 2.63640625 -1.52742187 2.0228125 -1.05859375 1.390625 C-0.70925781 0.93171875 -0.35992187 0.4728125 0 0 Z " fill="#1B0C6B" transform="translate(164,38)"/>
<path d="M0 0 C2.4375 1.625 2.4375 1.625 4 4 C4 7.55053329 3.64301849 9.28808667 1.25 11.9375 C-1 13 -1 13 -3.5625 12.875 C-6.24955992 11.91041439 -7.43467041 11.38918727 -9 9 C-9.39365568 5.85075452 -9.52854531 3.88090884 -7.875 1.125 C-5.07553259 -0.55468045 -3.20195936 -0.45742277 0 0 Z " fill="#372778" transform="translate(56,160)"/>
<path d="M0 0 C0.99 0 1.98 0 3 0 C3 3 3 3 1.5 4.6875 C1.005 5.120625 0.51 5.55375 0 6 C2.1875 3.4375 2.1875 3.4375 5 1 C9.19047619 1.19047619 9.19047619 1.19047619 11 3 C10.4 9.6 10.4 9.6 8 12 C4.46428571 11.46428571 4.46428571 11.46428571 3 10 C1.33985384 9.63557767 -0.32706064 9.30027117 -2 9 C-2.25 3.375 -2.25 3.375 0 0 Z " fill="#261770" transform="translate(32,75)"/>
<path d="M0 0 C0.99 0.66 1.98 1.32 3 2 C2.39254603 6.85963179 0.27241033 10.7405518 -2 15 C-2.66 15 -3.32 15 -4 15 C-4.226875 14.05125 -4.45375 13.1025 -4.6875 12.125 C-5.69083714 8.80676612 -5.69083714 8.80676612 -8.625 7.625 C-9.40875 7.41875 -10.1925 7.2125 -11 7 C-11 6.01 -11 5.02 -11 4 C-9.23585377 3.27517252 -7.46337096 2.57060704 -5.6875 1.875 C-4.70136719 1.48054688 -3.71523437 1.08609375 -2.69921875 0.6796875 C-1.80847656 0.45539062 -0.91773438 0.23109375 0 0 Z " fill="#4A3D86" transform="translate(179,51)"/>
<path d="M0 0 C0.99 0 1.98 0 3 0 C3.69937202 1.4317616 4.38412718 2.87067032 5.0625 4.3125 C5.44535156 5.11300781 5.82820313 5.91351563 6.22265625 6.73828125 C7 9 7 9 6 12 C5.01 12 4.02 12 3 12 C2.67 10.68 2.34 9.36 2 8 C0.68 8.33 -0.64 8.66 -2 9 C-1.67 10.98 -1.34 12.96 -1 15 C-1.99 15.33 -2.98 15.66 -4 16 C-4.70180531 14.5903653 -5.38593958 13.17192359 -6.0625 11.75 C-6.44535156 10.96109375 -6.82820313 10.1721875 -7.22265625 9.359375 C-8.08564091 6.74006478 -7.93045933 5.55144824 -7 3 C-6.34 3 -5.68 3 -5 3 C-4.67 4.32 -4.34 5.64 -4 7 C-2.68 6.67 -1.36 6.34 0 6 C-0.2784375 4.7934375 -0.2784375 4.7934375 -0.5625 3.5625 C-0.706875 2.716875 -0.85125 1.87125 -1 1 C-0.67 0.67 -0.34 0.34 0 0 Z " fill="#23136E" transform="translate(79,28)"/>
<path d="M0 0 C3.37471011 1.44630433 5.78192764 3.04257018 8 6 C8 9.55053329 7.64301849 11.28808667 5.25 13.9375 C3 15 3 15 0.5625 15 C-2.79135053 13.69118028 -4.61908898 11.65301514 -7 9 C-6.67 8.01 -6.34 7.02 -6 6 C-2.66135596 6.57562828 -1.30897368 7.59063616 1 10 C1.99 10.33 2.98 10.66 4 11 C2.8141763 7.62496331 1.72426311 5.35277269 -1 3 C-0.67 2.01 -0.34 1.02 0 0 Z " fill="#2D1D73" transform="translate(52,46)"/>
<path d="M0 0 C0.56203125 0.23332031 1.1240625 0.46664062 1.703125 0.70703125 C1.78645857 5.54037845 1.65573987 9.94395688 0.703125 14.70703125 C-0.616875 14.04703125 -1.936875 13.38703125 -3.296875 12.70703125 C-3.296875 11.71703125 -3.296875 10.72703125 -3.296875 9.70703125 C-4.245625 9.72765625 -5.194375 9.74828125 -6.171875 9.76953125 C-9.296875 9.70703125 -9.296875 9.70703125 -11.296875 8.70703125 C-11.296875 8.04703125 -11.296875 7.38703125 -11.296875 6.70703125 C-9.46875 4.9453125 -9.46875 4.9453125 -7.046875 3.01953125 C-6.25796875 2.37628906 -5.4690625 1.73304687 -4.65625 1.0703125 C-2.296875 -0.29296875 -2.296875 -0.29296875 0 0 Z " fill="#21116D" transform="translate(155.296875,32.29296875)"/>
<path d="M0 0 C-0.165 0.639375 -0.33 1.27875 -0.5 1.9375 C-1.03926667 3.80826821 -1.03926667 3.80826821 -1 5 C-0.01 4.67 0.98 4.34 2 4 C2 7 2 7 0 9.1875 C-0.99 10.0846875 -0.99 10.0846875 -2 11 C0.31 10.01 2.62 9.02 5 8 C5.33 8.99 5.66 9.98 6 11 C-0.625 15 -0.625 15 -4 15 C-5.65 11.7 -7.3 8.4 -9 5 C-2.25 0 -2.25 0 0 0 Z " fill="#291A72" transform="translate(159,174)"/>
<path d="M0 0 C1.18564665 4.14976327 0.70899628 6.10728625 -1 10 C-1.37593066 11.9924325 -1.71979545 13.9918674 -2 16 C-2.66 15.34 -3.32 14.68 -4 14 C-4.33 14.66 -4.66 15.32 -5 16 C-5.66 16 -6.32 16 -7 16 C-6.67 14.68 -6.34 13.36 -6 12 C-6.66 12 -7.32 12 -8 12 C-8.08131463 10.56344146 -8.13933559 9.1255517 -8.1875 7.6875 C-8.22230469 6.88699219 -8.25710937 6.08648437 -8.29296875 5.26171875 C-8 3 -8 3 -6.65625 1.21875 C-4.39462293 -0.44546615 -2.73668179 -0.22189312 0 0 Z " fill="#3D3734" transform="translate(96,135)"/>
<path d="M0 0 C1.65 0 3.3 0 5 0 C5.50559908 1.43554025 6.0042749 2.8735202 6.5 4.3125 C6.7784375 5.11300781 7.056875 5.91351563 7.34375 6.73828125 C8 9 8 9 8 12 C6.68 12 5.36 12 4 12 C4 11.34 4 10.68 4 10 C-0.455 10.495 -0.455 10.495 -5 11 C-3.35 7.37 -1.7 3.74 0 0 Z " fill="#382A7B" transform="translate(106,187)"/>
<path d="M0 0 C0.99 0.33 1.98 0.66 3 1 C3.69890847 5.36817792 4.30880577 9.573784 4 14 C3.34 14.66 2.68 15.32 2 16 C-1.53571429 15.46428571 -1.53571429 15.46428571 -3 14 C-3.71006614 10.66815118 -4.10834545 7.40746453 -4 4 C-2.0625 1.375 -2.0625 1.375 0 0 Z " fill="#64B53A" transform="translate(94,113)"/>
<path d="M0 0 C3.23201584 0.37344721 5.55649103 1.81171917 8.25 3.5625 C8.95640625 4.01753906 9.6628125 4.47257813 10.390625 4.94140625 C11.18726563 5.46541016 11.18726563 5.46541016 12 6 C10.31399733 7.77271137 9.11082296 8.94784802 6.875 10 C4.6469565 10.91202978 4.6469565 10.91202978 4 14 C3.34 14 2.68 14 2 14 C0.68 10.04 -0.64 6.08 -2 2 C-1.34 1.34 -0.68 0.68 0 0 Z " fill="#24136E" transform="translate(164,169)"/>
<path d="M0 0 C3.3 0 6.6 0 10 0 C10.6875 2.8125 10.6875 2.8125 11 6 C9.5625 7.8125 9.5625 7.8125 8 9 C8 9.33 8 9.66 8 10 C5.36 10 2.72 10 0 10 C-1.6415049 6.7169902 -0.51888624 3.57454967 0 0 Z " fill="#2E2825" transform="translate(96,135)"/>
<path d="M0 0 C1.875 1.5 1.875 1.5 3 3 C-0.05263664 3.98120464 -1.94736336 3.98120464 -5 3 C-4.67 4.98 -4.34 6.96 -4 9 C-0.535 8.505 -0.535 8.505 3 8 C2.4375 9.9375 2.4375 9.9375 1 12 C-4.79844961 13.58139535 -4.79844961 13.58139535 -7.9375 12.0625 C-9.71243124 8.61704524 -9.36634038 5.84657396 -9 2 C-5.53076119 -0.31282587 -4.07794425 -0.42478586 0 0 Z " fill="#22146F" transform="translate(113,22)"/>
<path d="M0 0 C4.34586828 -0.39507893 6.32003497 -0.45331002 10 2 C10 2.99 10 3.98 10 5 C7.69 4.67 5.38 4.34 3 4 C2.67 5.65 2.34 7.3 2 9 C3.65 8.67 5.3 8.34 7 8 C7 9.32 7 10.64 7 12 C1.6 12.36 1.6 12.36 -0.875 10.875 C-2.51151479 8.14747535 -2.32502803 6.12026907 -2 3 C-1.34 2.01 -0.68 1.02 0 0 Z " fill="#271971" transform="translate(85,183)"/>
<path d="M0 0 C0.33 0.66 0.66 1.32 1 2 C-2 3 -2 3 -5 2 C-5 2.66 -5 3.32 -5 4 C-3.2984375 3.9690625 -3.2984375 3.9690625 -1.5625 3.9375 C2 4 2 4 3 5 C3.1875 7.4375 3.1875 7.4375 3 10 C1 12 1 12 -2.625 12.125 C-3.73875 12.08375 -4.8525 12.0425 -6 12 C-6 11.01 -6 10.02 -6 9 C-4.35 9 -2.7 9 -1 9 C-0.67 8.34 -0.34 7.68 0 7 C-2.64 7 -5.28 7 -8 7 C-8.6875 5.1875 -8.6875 5.1875 -9 3 C-6.75886401 -0.69128281 -4.00118708 -0.26674581 0 0 Z " fill="#1E0D6C" transform="translate(149,181)"/>
<path d="M0 0 C2.21462117 1.76004103 2.94503183 2.59035628 3.328125 5.4453125 C3.30234375 6.32960938 3.2765625 7.21390625 3.25 8.125 C3.22679687 9.45917969 3.22679687 9.45917969 3.203125 10.8203125 C3 13 3 13 2 14 C-0.5 14.125 -0.5 14.125 -3 14 C-4 13 -4 13 -4.09765625 10.49609375 C-4.08605469 9.48675781 -4.07445312 8.47742188 -4.0625 7.4375 C-4.05347656 6.42558594 -4.04445312 5.41367188 -4.03515625 4.37109375 C-4.02355469 3.58863281 -4.01195312 2.80617188 -4 2 C-2.68 1.34 -1.36 0.68 0 0 Z " fill="#4DAC42" transform="translate(136,115)"/>
<path d="M0 0 C5.22440104 0.32652507 9.38035275 3.3893345 13 7 C13 7.99 13 8.98 13 10 C12.01 10 11.02 10 10 10 C10.33 10.99 10.66 11.98 11 13 C6.03231242 11.44759763 1.82132943 8.48945219 -2 5 C-2 4.34 -2 3.68 -2 3 C0.475 3.495 0.475 3.495 3 4 C2.01 3.34 1.02 2.68 0 2 C0 1.34 0 0.68 0 0 Z " fill="#D2A545" transform="translate(68,117)"/>
<path d="M0 0 C1.22589844 0.15275391 1.22589844 0.15275391 2.4765625 0.30859375 C3.41628906 0.43427734 3.41628906 0.43427734 4.375 0.5625 C4.375 2.2125 4.375 3.8625 4.375 5.5625 C7.015 5.5625 9.655 5.5625 12.375 5.5625 C12.375 5.8925 12.375 6.2225 12.375 6.5625 C5.115 6.5625 -2.145 6.5625 -9.625 6.5625 C-5.96057047 -0.76635906 -5.96057047 -0.76635906 0 0 Z " fill="#989797" transform="translate(114.625,106.4375)"/>
<path d="M0 0 C1.9375 0.75 1.9375 0.75 3.9375 2.75 C4.1875 5.25 4.1875 5.25 3.9375 7.75 C1.9375 9.75 1.9375 9.75 -0.5625 10 C-3.0625 9.75 -3.0625 9.75 -5.0625 7.75 C-5.375 4.75 -5.375 4.75 -5.0625 1.75 C-2.0625 -0.25 -2.0625 -0.25 0 0 Z " fill="#26166E" transform="translate(198.0625,115.25)"/>
<path d="M0 0 C3.0625 0.1875 3.0625 0.1875 5.0625 2.1875 C4.6875 5.3125 4.6875 5.3125 4.0625 8.1875 C-1.37190487 9.51591008 -1.37190487 9.51591008 -3.875 8.0625 C-4.9375 6.1875 -4.9375 6.1875 -4.6875 3.5625 C-3.63578571 0.23207143 -3.63578571 0.23207143 0 0 Z " fill="#27176F" transform="translate(30.9375,115.8125)"/>
<path d="M0 0 C2.31 0.33 4.62 0.66 7 1 C6.01 1.66 5.02 2.32 4 3 C5.2065625 3.433125 5.2065625 3.433125 6.4375 3.875 C9 5 9 5 10 7 C5.05 9.475 5.05 9.475 0 12 C0 12.66 0 13.32 0 14 C-0.99 14 -1.98 14 -3 14 C-2.01 9.38 -1.02 4.76 0 0 Z " fill="#E9F2EE" transform="translate(67,97)"/>
<path d="M0 0 C0.53625 0.2475 1.0725 0.495 1.625 0.75 C1.295 1.41 0.965 2.07 0.625 2.75 C-0.035 2.75 -0.695 2.75 -1.375 2.75 C0.275 5.72 1.925 8.69 3.625 11.75 C2.305 12.08 0.985 12.41 -0.375 12.75 C-0.931875 11.925 -1.48875 11.1 -2.0625 10.25 C-4.12427133 7.4754586 -4.12427133 7.4754586 -7.125 7.4375 C-7.8675 7.540625 -8.61 7.64375 -9.375 7.75 C-9.25 6 -9.25 6 -8.375 3.75 C-3.38130517 -0.35592686 -3.38130517 -0.35592686 0 0 Z " fill="#2E1F74" transform="translate(66.375,36.25)"/>
<path d="M0 0 C3.49873271 1.39655297 4.70891831 2.71260484 6.25 6.125 C6.58515625 6.84945312 6.9203125 7.57390625 7.265625 8.3203125 C7.62914062 9.15175781 7.62914062 9.15175781 8 10 C6.68 10 5.36 10 4 10 C4 9.34 4 8.68 4 8 C2.3603125 8.99 2.3603125 8.99 0.6875 10 C-1.93707538 11.58464929 -2.8256378 12 -6 12 C-6.33 11.01 -6.66 10.02 -7 9 C-4.69 7.68 -2.38 6.36 0 5 C-0.2784375 4.0409375 -0.2784375 4.0409375 -0.5625 3.0625 C-0.706875 2.381875 -0.85125 1.70125 -1 1 C-0.67 0.67 -0.34 0.34 0 0 Z " fill="#271971" transform="translate(185,60)"/>
<path d="M0 0 C2.9719385 1.12451727 5.33440687 2.22293791 8 4 C7.67 4.99 7.34 5.98 7 7 C5.02 6.01 3.04 5.02 1 4 C1.495 4.433125 1.99 4.86625 2.5 5.3125 C4 7 4 7 4 10 C1.525 9.01 1.525 9.01 -1 8 C-1.99 9.485 -1.99 9.485 -3 11 C-4.32 10.34 -5.64 9.68 -7 9 C-6.02180976 7.68677212 -5.0424189 6.37443848 -4.0625 5.0625 C-3.51722656 4.33160156 -2.97195312 3.60070312 -2.41015625 2.84765625 C-1 1 -1 1 0 0 Z " fill="#261870" transform="translate(62,168)"/>
<path d="M0 0 C5.445 1.485 5.445 1.485 11 3 C11 3.99 11 4.98 11 6 C9.68 6 8.36 6 7 6 C6.01 8.64 5.02 11.28 4 14 C2.68 13.34 1.36 12.68 0 12 C0.66 9.69 1.32 7.38 2 5 C1.01 4.01 0.02 3.02 -1 2 C-0.67 1.34 -0.34 0.68 0 0 Z " fill="#25176F" transform="translate(136,25)"/>
<path d="M0 0 C5 2 5 2 8 4 C7.67 4.99 7.34 5.98 7 7 C4.525 6.01 4.525 6.01 2 5 C2.99 6.32 3.98 7.64 5 9 C1 9 1 9 -1 8 C-1.66 9.32 -2.32 10.64 -3 12 C-3.99 11.01 -4.98 10.02 -6 9 C-4.02 6.03 -2.04 3.06 0 0 Z " fill="#21126D" transform="translate(71,174)"/>
<path d="M0 0 C2.64 0.33 5.28 0.66 8 1 C8 3.97 8 6.94 8 10 C7.236875 9.814375 6.47375 9.62875 5.6875 9.4375 C2.91032625 8.77180827 2.91032625 8.77180827 0 10 C0 6.7 0 3.4 0 0 Z " fill="#DDCCAD" transform="translate(112,90)"/>
<path d="M0 0 C1.32 0.66 2.64 1.32 4 2 C3.34 2 2.68 2 2 2 C1.97106068 5.62498334 1.95322208 9.24993713 1.9375 12.875 C1.92912109 13.90753906 1.92074219 14.94007812 1.91210938 16.00390625 C1.90727539 17.48310547 1.90727539 17.48310547 1.90234375 18.9921875 C1.89710693 19.90339355 1.89187012 20.81459961 1.88647461 21.75341797 C1.85114435 24.03687509 1.85114435 24.03687509 3 26 C1.35 26 -0.3 26 -2 26 C-2.05799124 22.22923111 -2.09359306 18.45857666 -2.125 14.6875 C-2.14175781 13.61564453 -2.15851563 12.54378906 -2.17578125 11.43945312 C-2.18222656 10.41142578 -2.18867187 9.38339844 -2.1953125 8.32421875 C-2.20578613 7.37635498 -2.21625977 6.42849121 -2.22705078 5.4519043 C-2 3 -2 3 0 0 Z " fill="#77A861" transform="translate(83,103)"/>
<path d="M0 0 C2.03833424 1.2739589 4.03852126 2.61061923 6 4 C6 4.66 6 5.32 6 6 C7.98 4.68 9.96 3.36 12 2 C12 6 12 6 10.6875 7.484375 C9.125 8.65625 7.5625 9.828125 6 11 C3.36 8.36 0.72 5.72 -2 3 C-1.34 2.01 -0.68 1.02 0 0 Z " fill="#23146E" transform="translate(171,163)"/>
<path d="M0 0 C1.32 0 2.64 0 4 0 C4 2.97 4 5.94 4 9 C6.31 9 8.62 9 11 9 C11 9.99 11 10.98 11 12 C7.7 12 4.4 12 1 12 C0.67 8.04 0.34 4.08 0 0 Z " fill="#20116D" transform="translate(115,187)"/>
<path d="M0 0 C1.875 1.3125 1.875 1.3125 3 3 C3 3.99 3 4.98 3 6 C2.34 6 1.68 6 1 6 C1 5.01 1 4.02 1 3 C-0.98 3.66 -2.96 4.32 -5 5 C-5 6.32 -5 7.64 -5 9 C-4.34 9.66 -3.68 10.32 -3 11 C-4.32 11 -5.64 11 -7 11 C-9 9 -9 9 -9.3125 6.0625 C-9 3 -9 3 -7.875 1.125 C-5.11909116 -0.52854531 -3.14924548 -0.39365568 0 0 Z " fill="#1E0F6C" transform="translate(56,160)"/>
<path d="M0 0 C6.32597793 -0.35807422 6.32597793 -0.35807422 9 1.0625 C10.61647822 4.19442656 9.78665296 6.67185286 9 10 C7 12 7 12 3.375 12.125 C2.26125 12.08375 1.1475 12.0425 0 12 C0.9590625 11.7215625 0.9590625 11.7215625 1.9375 11.4375 C4.42126213 10.05753944 4.42126213 10.05753944 4.75 6.375 C4.8325 5.26125 4.915 4.1475 5 3 C2.525 2.01 2.525 2.01 0 1 C0 0.67 0 0.34 0 0 Z " fill="#23126E" transform="translate(122,23)"/>
<path d="M0 0 C0.99 0 1.98 0 3 0 C3 5.94 3 11.88 3 18 C0.69 18.33 -1.62 18.66 -4 19 C-3.67 18.34 -3.34 17.68 -3 17 C-2.34 17 -1.68 17 -1 17 C-0.67 11.39 -0.34 5.78 0 0 Z " fill="#4A9869" transform="translate(145,110)"/>
<path d="M0 0 C0 1.65 0 3.3 0 5 C-0.99 5 -1.98 5 -3 5 C-3 6.65 -3 8.3 -3 10 C-3.99 9.67 -4.98 9.34 -6 9 C-5.67 7.68 -5.34 6.36 -5 5 C-6.32 5 -7.64 5 -9 5 C-9 3.68 -9 2.36 -9 1 C-5.846632 0.29925156 -3.27275026 0 0 0 Z " fill="#F4DC8E" transform="translate(123,115)"/>
<path d="M0 0 C0.66 0.33 1.32 0.66 2 1 C-2.60136502 6.53601728 -7.46398272 11.39863498 -13 16 C-13 10.79628205 -8.49504984 7.5790344 -5 4 C-3.37707762 2.6137538 -1.7331451 1.24569804 0 0 Z " fill="#17509E" transform="translate(69,52)"/>
<path d="M0 0 C0.33 0.99 0.66 1.98 1 3 C1.99 2.67 2.98 2.34 4 2 C4.6875 3.75 4.6875 3.75 5 6 C3.5625 8.25 3.5625 8.25 2 10 C2 9.34 2 8.68 2 8 C1.05125 8.020625 0.1025 8.04125 -0.875 8.0625 C-4 8 -4 8 -6 7 C-6 6.34 -6 5.68 -6 5 C-4.04072937 3.2856382 -2.04119788 1.61594832 0 0 Z " fill="#443682" transform="translate(150,34)"/>
<path d="M0 0 C1.32 0.33 2.64 0.66 4 1 C2.68938409 5.23429756 1.05643741 9.07407404 -1 13 C-1.99 12.67 -2.98 12.34 -4 12 C-3.33501617 7.61110675 -1.81242323 4.0188515 0 0 Z " fill="#342778" transform="translate(80,179)"/>
<path d="M0 0 C0 2 0 2 -1.5 3.625 C-1.995 4.07875 -2.49 4.5325 -3 5 C-0.03 5.495 -0.03 5.495 3 6 C3 6.33 3 6.66 3 7 C0.36 7 -2.28 7 -5 7 C-5 5.35 -5 3.7 -5 2 C-9.29 1.67 -13.58 1.34 -18 1 C-18 0.67 -18 0.34 -18 0 C-11.76817361 -1.03863773 -6.25307239 -0.83288874 0 0 Z " fill="#686667" transform="translate(124,105)"/>
<path d="M0 0 C2.31 0 4.62 0 7 0 C6.01 0.33 5.02 0.66 4 1 C4.99 1.66 5.98 2.32 7 3 C7.6875 5.125 7.6875 5.125 8 7 C6.35 7.33 4.7 7.66 3 8 C2.67 7.01 2.34 6.02 2 5 C-0.01508358 4.26676204 -0.01508358 4.26676204 -2 4 C-1.34 2.68 -0.68 1.36 0 0 Z " fill="#AD6F51" transform="translate(125,136)"/>
<path d="M0 0 C0.33 0 0.66 0 1 0 C1.33 1.65 1.66 3.3 2 5 C5.465 4.505 5.465 4.505 9 4 C8.4375 5.9375 8.4375 5.9375 7 8 C3.375 8.75 3.375 8.75 0 9 C-0.99 7.68 -1.98 6.36 -3 5 C-2.01 4.67 -1.02 4.34 0 4 C0 2.68 0 1.36 0 0 Z " fill="#40317E" transform="translate(107,26)"/>
<path d="M0 0 C-0.1875 2.375 -0.1875 2.375 -1 5 C-3.68490027 6.59642719 -5.21434929 7.12740282 -8.3125 6.625 C-8.869375 6.41875 -9.42625 6.2125 -10 6 C-9.67 5.01 -9.34 4.02 -9 3 C-8.01 3 -7.02 3 -6 3 C-6.33 2.01 -6.66 1.02 -7 0 C-2.25 -1.125 -2.25 -1.125 0 0 Z " fill="#776DA3" transform="translate(172,43)"/>
<path d="M0 0 C1.32 0.66 2.64 1.32 4 2 C3.01 5.63 2.02 9.26 1 13 C0.01 12.67 -0.98 12.34 -2 12 C-1.85904936 10.3745692 -1.71207913 8.74965949 -1.5625 7.125 C-1.48128906 6.22007812 -1.40007812 5.31515625 -1.31640625 4.3828125 C-1 2 -1 2 0 0 Z " fill="#19096A" transform="translate(98,185)"/>
<path d="M0 0 C0.33 0 0.66 0 1 0 C1.13277344 0.83144531 1.26554688 1.66289062 1.40234375 2.51953125 C1.57894531 3.60621094 1.75554687 4.69289062 1.9375 5.8125 C2.19853516 7.43091797 2.19853516 7.43091797 2.46484375 9.08203125 C2.93871921 12.04933356 2.93871921 12.04933356 4 15 C0.535 16.485 0.535 16.485 -3 18 C-3.1875 15.75 -3.1875 15.75 -3 13 C-2.505 12.4225 -2.01 11.845 -1.5 11.25 C0.84102347 7.7384648 0.23675366 4.10373008 0 0 Z " fill="#A03331" transform="translate(143,137)"/>
<path d="M0 0 C3.36637397 1.4427317 5.66502571 3.16467407 8 6 C8 7.32 8 8.64 8 10 C5 10 5 10 3.359375 8.57421875 C2.82828125 7.95160156 2.2971875 7.32898437 1.75 6.6875 C1.20859375 6.07261719 0.6671875 5.45773438 0.109375 4.82421875 C-0.25671875 4.22222656 -0.6228125 3.62023438 -1 3 C-0.67 2.01 -0.34 1.02 0 0 Z " fill="#190C69" transform="translate(52,46)"/>
<path d="M0 0 C1.60080151 4.00200378 0.29279692 7.04556236 -1 11 C-2.65 11 -4.3 11 -6 11 C-5.63076923 4.6 -5.63076923 4.6 -2.4375 1.5625 C-1.633125 1.046875 -0.82875 0.53125 0 0 Z " fill="#422B28" transform="translate(107,141)"/>
<path d="M0 0 C3.65396407 0.61178756 5.86042559 2.1664456 8.75 4.4375 C9.54921875 5.05496094 10.3484375 5.67242187 11.171875 6.30859375 C12.07679687 7.14583984 12.07679687 7.14583984 13 8 C13 8.66 13 9.32 13 10 C8.03231242 8.44759763 3.82132943 5.48945219 0 2 C0 1.34 0 0.68 0 0 Z " fill="#D88F27" transform="translate(66,120)"/>
<path d="M0 0 C0.556875 0.45375 1.11375 0.9075 1.6875 1.375 C4.05313439 3.03733768 6.29015658 4.02144543 9 5 C8.34 5.66 7.68 6.32 7 7 C6.01 8.485 6.01 8.485 5 10 C5.99 9.67 6.98 9.34 8 9 C8.33 9.66 8.66 10.32 9 11 C6.36 11 3.72 11 1 11 C1.66 9.68 2.32 8.36 3 7 C2.505 6.401875 2.01 5.80375 1.5 5.1875 C0 3 0 3 0 0 Z " fill="#088048" transform="translate(113,66)"/>
<path d="M0 0 C3.01327566 1.50663783 3.61056618 4.03166411 5 7 C0.545 7.495 0.545 7.495 -4 8 C-2.68 5.36 -1.36 2.72 0 0 Z " fill="#25166F" transform="translate(105,190)"/>
<path d="M0 0 C0.99 0.33 1.98 0.66 3 1 C3.6875 3.3125 3.6875 3.3125 4 6 C2.75 7.8125 2.75 7.8125 1 9 C0.01 9 -0.98 9 -2 9 C-1.67 8.01 -1.34 7.02 -1 6 C-1.185625 5.319375 -1.37125 4.63875 -1.5625 3.9375 C-1.706875 3.298125 -1.85125 2.65875 -2 2 C-1.34 1.34 -0.68 0.68 0 0 Z " fill="#23211E" transform="translate(103,135)"/>
<path d="M0 0 C0.33 1.32 0.66 2.64 1 4 C2.1446875 4.2165625 2.1446875 4.2165625 3.3125 4.4375 C6 5 6 5 9 6 C9 6.99 9 7.98 9 9 C3.6 9.36 3.6 9.36 1.125 7.875 C-0.4682099 5.21965017 -0.20214032 3.03210482 0 0 Z " fill="#1D0D6B" transform="translate(37,64)"/>
<path d="M0 0 C0.99 0.66 1.98 1.32 3 2 C2.67 3.65 2.34 5.3 2 7 C0.68 7.33 -0.64 7.66 -2 8 C-2 7.01 -2 6.02 -2 5 C-2.66 5 -3.32 5 -4 5 C-3.6875 3.0625 -3.6875 3.0625 -3 1 C-2.01 0.67 -1.02 0.34 0 0 Z " fill="#25166F" transform="translate(179,51)"/>
<path d="M0 0 C0.66 0 1.32 0 2 0 C2 3.3 2 6.6 2 10 C0.35 10.33 -1.3 10.66 -3 11 C-2.835 10.4225 -2.67 9.845 -2.5 9.25 C-1.85537969 6.73335631 -1.85537969 6.73335631 -2 3 C-1.34 3 -0.68 3 0 3 C0 2.01 0 1.02 0 0 Z " fill="#26A23A" transform="translate(137,118)"/>
<path d="M0 0 C0.99 0 1.98 0 3 0 C4.37432457 3.81756824 3.67975039 7.07255329 3 11 C2.01 10.67 1.02 10.34 0 10 C0 6.7 0 3.4 0 0 Z " fill="#BD8244" transform="translate(154,118)"/>
<path d="M0 0 C1.65 0.33 3.3 0.66 5 1 C5.33 2.32 5.66 3.64 6 5 C4.1875 5.625 4.1875 5.625 2 6 C1.01 5.34 0.02 4.68 -1 4 C-0.67 2.68 -0.34 1.36 0 0 Z " fill="#E9E8EF" transform="translate(41,64)"/>
<path d="M0 0 C0.66 0.33 1.32 0.66 2 1 C0.408038 2.89662572 -0.48703125 3.90261704 -2.96118164 4.37231445 C-3.68684326 4.3693335 -4.41250488 4.36635254 -5.16015625 4.36328125 C-5.95357422 4.36263672 -6.74699219 4.36199219 -7.56445312 4.36132812 C-8.38880859 4.34521484 -9.21316406 4.32910156 -10.0625 4.3125 C-10.89072266 4.31572266 -11.71894531 4.31894531 -12.57226562 4.32226562 C-18.73287408 4.26712592 -18.73287408 4.26712592 -21 2 C-20.15236084 1.96241577 -20.15236084 1.96241577 -19.28759766 1.92407227 C-16.73316258 1.80820044 -14.1791045 1.68543463 -11.625 1.5625 C-10.29082031 1.50352539 -10.29082031 1.50352539 -8.9296875 1.44335938 C-8.07890625 1.40146484 -7.228125 1.35957031 -6.3515625 1.31640625 C-5.56604004 1.27974854 -4.78051758 1.24309082 -3.97119141 1.20532227 C-1.92476504 1.109109 -1.92476504 1.109109 0 0 Z " fill="#9E9ABB" transform="translate(124,58)"/>
<path d="M0 0 C2.5 1.3125 2.5 1.3125 5 3 C5 3.99 5 4.98 5 6 C4.071875 5.95875 3.14375 5.9175 2.1875 5.875 C-1.15809719 5.72863661 -1.15809719 5.72863661 -4 8 C-3.40072174 4.64404172 -2.15377564 2.62198774 0 0 Z " fill="#2A1C73" transform="translate(164,38)"/>
<path d="M0 0 C0.33 1.32 0.66 2.64 1 4 C2.65 3.67 4.3 3.34 6 3 C6 4.32 6 5.64 6 7 C0.25 7.125 0.25 7.125 -2 6 C-2 5.01 -2 4.02 -2 3 C-1.34 3 -0.68 3 0 3 C0 2.01 0 1.02 0 0 Z " fill="#322377" transform="translate(86,188)"/>
<path d="M0 0 C2 1 2 1 3.1875 2.5625 C4.41397265 6.24191796 3.63426189 9.19442869 3 13 C2.34 13 1.68 13 1 13 C1.33 11.68 1.66 10.36 2 9 C1.34 9 0.68 9 0 9 C0 6.03 0 3.06 0 0 Z " fill="#44221E" transform="translate(88,138)"/>
<path d="M0 0 C1.9375 0.375 1.9375 0.375 4 1 C4.33 1.66 4.66 2.32 5 3 C4.01 4.32 3.02 5.64 2 7 C0.68 6.67 -0.64 6.34 -2 6 C-1.34 4.02 -0.68 2.04 0 0 Z " fill="#615595" transform="translate(38,80)"/>
<path d="M0 0 C0.78375 0.04125 1.5675 0.0825 2.375 0.125 C2.045 1.775 1.715 3.425 1.375 5.125 C0.055 5.455 -1.265 5.785 -2.625 6.125 C-3.285 4.805 -3.945 3.485 -4.625 2.125 C-2.625 0.125 -2.625 0.125 0 0 Z " fill="#EBEAF0" transform="translate(191.625,77.875)"/>
<path d="M0 0 C2.0625 0.4375 2.0625 0.4375 4 1 C3.67 2.65 3.34 4.3 3 6 C1.35 6 -0.3 6 -2 6 C-1.125 1.125 -1.125 1.125 0 0 Z " fill="#E9E8EF" transform="translate(52,163)"/>
<path d="M0 0 C0.53625 0.2475 1.0725 0.495 1.625 0.75 C1.295 1.41 0.965 2.07 0.625 2.75 C0.026875 2.87375 -0.57125 2.9975 -1.1875 3.125 C-4.06716652 3.94776186 -5.3220384 5.62860635 -7.375 7.75 C-8.035 7.75 -8.695 7.75 -9.375 7.75 C-9.25 6 -9.25 6 -8.375 3.75 C-3.38130517 -0.35592686 -3.38130517 -0.35592686 0 0 Z " fill="#241770" transform="translate(66.375,36.25)"/>
<path d="M0 0 C2.31 0.33 4.62 0.66 7 1 C7 3.31 7 5.62 7 8 C6.01 8 5.02 8 4 8 C4 6.35 4 4.7 4 3 C2.35 3 0.7 3 -1 3 C-0.67 2.01 -0.34 1.02 0 0 Z " fill="#E2E2E3" transform="translate(137,143)"/>
<path d="M0 0 C0.33 0.66 0.66 1.32 1 2 C-2 3 -2 3 -5 2 C-4.67 2.99 -4.34 3.98 -4 5 C-4.66 5 -5.32 5 -6 5 C-6.66 5.66 -7.32 6.32 -8 7 C-8.6875 5.1875 -8.6875 5.1875 -9 3 C-6.75886401 -0.69128281 -4.00118708 -0.26674581 0 0 Z " fill="#2A1C73" transform="translate(149,181)"/>
<path d="M0 0 C1.32 0 2.64 0 4 0 C4 0.66 4 1.32 4 2 C4.66 2 5.32 2 6 2 C6.33 3.65 6.66 5.3 7 7 C6.01 7 5.02 7 4 7 C3.34 6.34 2.68 5.68 2 5 C2 4.01 2 3.02 2 2 C1.34 2 0.68 2 0 2 C0 1.34 0 0.68 0 0 Z " fill="#3C3431" transform="translate(110,140)"/>
<path d="M0 0 C1.65 0 3.3 0 5 0 C5 1.65 5 3.3 5 5 C3.35 5.33 1.7 5.66 0 6 C0 4.02 0 2.04 0 0 Z " fill="#F3F2F6" transform="translate(123,26)"/>
<path d="M0 0 C0.99 0.33 1.98 0.66 3 1 C2.814375 1.5775 2.62875 2.155 2.4375 2.75 C1.95976454 5.20692525 2.24270636 6.64397534 3 9 C2.01 9.33 1.02 9.66 0 10 C-1.36952673 7.26094655 -1.12621361 5.02912668 -1 2 C-0.67 1.34 -0.34 0.68 0 0 Z " fill="#4F4189" transform="translate(166,173)"/>
<path d="M0 0 C1.32 0.33 2.64 0.66 4 1 C4 3.97 4 6.94 4 10 C3.01 10.495 3.01 10.495 2 11 C0.5393715 8.35261084 0 7.10551666 0 4 C-0.66 3.67 -1.32 3.34 -2 3 C-1.34 2.67 -0.68 2.34 0 2 C0 1.34 0 0.68 0 0 Z " fill="#1B9F44" transform="translate(94,117)"/>
<path d="M0 0 C0 1.65 0 3.3 0 5 C-2.31 5 -4.62 5 -7 5 C-5.22678182 1.07358831 -4.52021524 0 0 0 Z " fill="#8D8C8D" transform="translate(127,106)"/>
<path d="M0 0 C0 3.39593478 -0.52165948 4.06619881 -2.5 6.6875 C-2.9640625 7.31011719 -3.428125 7.93273437 -3.90625 8.57421875 C-4.2671875 9.04472656 -4.628125 9.51523438 -5 10 C-6 7 -6 7 -4.75 3.875 C-3 1 -3 1 0 0 Z " fill="#0A9342" transform="translate(80,106)"/>
<path d="M0 0 C0.66 0.33 1.32 0.66 2 1 C1.625 3.9375 1.625 3.9375 1 7 C0.01 7.495 0.01 7.495 -1 8 C-1.66 7.67 -2.32 7.34 -3 7 C-2.625 4.0625 -2.625 4.0625 -2 1 C-1.34 0.67 -0.68 0.34 0 0 Z " fill="#3C2D7C" transform="translate(196,78)"/>
<path d="M0 0 C0.6875 2.0625 0.6875 2.0625 1 4 C-1.62113708 4 -3.50935112 3.68707555 -6 3 C-6 2.01 -6 1.02 -6 0 C-3 -1 -3 -1 0 0 Z " fill="#2F1F74" transform="translate(174,55)"/>
<path d="M0 0 C0.99 0 1.98 0 3 0 C3 2.97 3 5.94 3 9 C2.01 8.67 1.02 8.34 0 8 C0 5.36 0 2.72 0 0 Z " fill="#E6E5EB" transform="translate(117,91)"/>
<path d="M0 0 C3.3 0.33 6.6 0.66 10 1 C9.67 1.66 9.34 2.32 9 3 C4.38 3 -0.24 3 -5 3 C-5 2.67 -5 2.34 -5 2 C-3.35 2 -1.7 2 0 2 C0 1.34 0 0.68 0 0 Z " fill="#1065AA" transform="translate(102,85)"/>
<path d="M0 0 C-0.33 0.66 -0.66 1.32 -1 2 C-5.28769786 3.29930238 -9.56510345 3.07516774 -14 3 C-4.91666667 -1.89102564 -4.91666667 -1.89102564 0 0 Z " fill="#048943" transform="translate(101,75)"/>
<path d="M0 0 C0.33 0 0.66 0 1 0 C1.06058594 1.20398438 1.12117188 2.40796875 1.18359375 3.6484375 C1.26799732 5.22397077 1.35264541 6.79949096 1.4375 8.375 C1.47681641 9.1690625 1.51613281 9.963125 1.55664062 10.78125 C1.68893404 15.02601221 1.68893404 15.02601221 3 19 C1.35 19 -0.3 19 -2 19 C-1.67 18.34 -1.34 17.68 -1 17 C-0.76725791 14.12089412 -0.58027243 11.25853505 -0.4375 8.375 C-0.39431641 7.57320313 -0.35113281 6.77140625 -0.30664062 5.9453125 C-0.20048543 3.9637489 -0.09973145 1.98189729 0 0 Z " fill="#DFB00B" transform="translate(83,110)"/>
<path d="M0 0 C0 1.65 0 3.3 0 5 C0.66 5.33 1.32 5.66 2 6 C-0.64 5.67 -3.28 5.34 -6 5 C-6 4.34 -6 3.68 -6 3 C-1.5 0 -1.5 0 0 0 Z " fill="#7B5E5C" transform="translate(116,158)"/>
<path d="M0 0 C1.32 0 2.64 0 4 0 C4.33 2.31 4.66 4.62 5 7 C3.35 6.67 1.7 6.34 0 6 C0 4.02 0 2.04 0 0 Z " fill="#B89A88" transform="translate(139,137)"/>
<path d="M0 0 C0.99 0 1.98 0 3 0 C3.33 2.31 3.66 4.62 4 7 C2.35 7 0.7 7 -1 7 C-0.67 4.69 -0.34 2.38 0 0 Z " fill="#ECBD25" transform="translate(120,120)"/>
<path d="M0 0 C1.98 0 3.96 0 6 0 C6 1.32 6 2.64 6 4 C4.02 4 2.04 4 0 4 C0 2.68 0 1.36 0 0 Z " fill="#FFFFFF" transform="translate(113,108)"/>
<path d="M0 0 C1.62580966 0.11398665 3.25067157 0.24155659 4.875 0.375 C5.77992188 0.44460937 6.68484375 0.51421875 7.6171875 0.5859375 C10 1 10 1 12 3 C8.04 3 4.08 3 0 3 C0 2.01 0 1.02 0 0 Z " fill="#165758" transform="translate(125,74)"/>
<path d="M0 0 C2.31 0 4.62 0 7 0 C7.66 1.32 8.32 2.64 9 4 C8.34 4 7.68 4 7 4 C6.67 5.32 6.34 6.64 6 8 C5.9071875 6.824375 5.9071875 6.824375 5.8125 5.625 C5.544375 4.75875 5.27625 3.8925 5 3 C2.52363988 1.62533375 2.52363988 1.62533375 0 1 C0 0.67 0 0.34 0 0 Z " fill="#150668" transform="translate(122,23)"/>
<path d="M0 0 C0.99 0.66 1.98 1.32 3 2 C2.34 3.98 1.68 5.96 1 8 C0.01 7.67 -0.98 7.34 -2 7 C-1.125 2.25 -1.125 2.25 0 0 Z " fill="#22156F" transform="translate(78,184)"/>
<path d="M0 0 C2.64 0 5.28 0 8 0 C7.67 1.32 7.34 2.64 7 4 C5.35 4 3.7 4 2 4 C1.34 2.68 0.68 1.36 0 0 Z " fill="#B8231B" transform="translate(108,135)"/>
<path d="M0 0 C0.66 1.32 1.32 2.64 2 4 C1.01 4.495 1.01 4.495 0 5 C-0.33 5.99 -0.66 6.98 -1 8 C-1.66 8 -2.32 8 -3 8 C-3.1875 5.125 -3.1875 5.125 -3 2 C-2.01 1.34 -1.02 0.68 0 0 Z " fill="#2D1D73" transform="translate(41,60)"/>
<path d="M0 0 C0.90105469 0.01804688 1.80210938 0.03609375 2.73046875 0.0546875 C3.41753906 0.07789063 4.10460937 0.10109375 4.8125 0.125 C2.62176883 2.07957437 1.44077019 3.10523653 -1.546875 3.19921875 C-2.33578125 3.07160156 -3.1246875 2.94398437 -3.9375 2.8125 C-4.73671875 2.69261719 -5.5359375 2.57273438 -6.359375 2.44921875 C-6.96265625 2.34222656 -7.5659375 2.23523437 -8.1875 2.125 C-4.87379 -0.08414 -3.8428979 -0.09981553 0 0 Z " fill="#22488F" transform="translate(121.1875,56.875)"/>
<path d="M0 0 C2.9719385 1.12451727 5.33440687 2.22293791 8 4 C7.67 4.99 7.34 5.98 7 7 C4.5 5.625 4.5 5.625 2 4 C2 3.34 2 2.68 2 2 C1.01 1.67 0.02 1.34 -1 1 C-0.67 0.67 -0.34 0.34 0 0 Z " fill="#281972" transform="translate(71,174)"/>
<path d="M0 0 C0.99 0.33 1.98 0.66 3 1 C3.5625 2.9375 3.5625 2.9375 4 5 C4.66 5.66 5.32 6.32 6 7 C4.68 7 3.36 7 2 7 C0 5 0 5 -0.125 2.375 C-0.08375 1.59125 -0.0425 0.8075 0 0 Z " fill="#160668" transform="translate(47,164)"/>
<path d="M0 0 C0.99 0 1.98 0 3 0 C3.33 1.65 3.66 3.3 4 5 C1.69 5.33 -0.62 5.66 -3 6 C-2.67 5.34 -2.34 4.68 -2 4 C-1.34 4 -0.68 4 0 4 C0 2.68 0 1.36 0 0 Z " fill="#579E73" transform="translate(144,123)"/>
<path d="M0 0 C0.99 0.33 1.98 0.66 3 1 C3.6875 3.0625 3.6875 3.0625 4 5 C1.69 5.33 -0.62 5.66 -3 6 C-2.42655063 3.13275314 -2.1385485 2.1385485 0 0 Z " fill="#47AD63" transform="translate(94,113)"/>
<path d="M0 0 C1.32 0.66 2.64 1.32 4 2 C3.6875 3.9375 3.6875 3.9375 3 6 C2.01 6.33 1.02 6.66 0 7 C-1.125 2.25 -1.125 2.25 0 0 Z " fill="#2A1B72" transform="translate(98,185)"/>
<path d="M0 0 C0 0.66 0 1.32 0 2 C0.66 2.33 1.32 2.66 2 3 C1 4 1 4 -2.0625 4.0625 C-3.031875 4.041875 -4.00125 4.02125 -5 4 C-5 3.01 -5 2.02 -5 1 C-2 0 -2 0 0 0 Z " fill="#1E0F6C" transform="translate(193,83)"/>
<path d="M0 0 C0.66 0.33 1.32 0.66 2 1 C2.625 3.0625 2.625 3.0625 3 5 C1.35 5.33 -0.3 5.66 -2 6 C-1.125 1.125 -1.125 1.125 0 0 Z " fill="#9C6E52" transform="translate(130,138)"/>
<path d="M0 0 C0.66 0.99 1.32 1.98 2 3 C1.67 3.99 1.34 4.98 1 6 C0.01 6 -0.98 6 -2 6 C-2 4.35 -2 2.7 -2 1 C-1.34 0.67 -0.68 0.34 0 0 Z " fill="#70BB3B" transform="translate(134,122)"/>
<path d="M0 0 C1.98 0.99 1.98 0.99 4 2 C3.6875 3.9375 3.6875 3.9375 3 6 C2.01 6.33 1.02 6.66 0 7 C0 4.69 0 2.38 0 0 Z " fill="#828182" transform="translate(105,97)"/>
<path d="M0 0 C2.97 0.33 5.94 0.66 9 1 C7.375 2.5625 7.375 2.5625 5 4 C1.75 3.6875 1.75 3.6875 -1 3 C-0.67 2.01 -0.34 1.02 0 0 Z " fill="#0C3F8B" transform="translate(114,86)"/>
<path d="M0 0 C0.33 0.66 0.66 1.32 1 2 C1.66 2 2.32 2 3 2 C2.3125 3.9375 2.3125 3.9375 1 6 C-1.625 6.75 -1.625 6.75 -4 7 C-4.33 6.34 -4.66 5.68 -5 5 C-3.35 5 -1.7 5 0 5 C0 3.35 0 1.7 0 0 Z " fill="#392B7B" transform="translate(56,54)"/>
<path d="M0 0 C1.98 0.66 3.96 1.32 6 2 C4.68 2.33 3.36 2.66 2 3 C2 4.65 2 6.3 2 8 C1.566875 7.0409375 1.566875 7.0409375 1.125 6.0625 C0.17176549 3.84793921 0.17176549 3.84793921 -2 3 C-1.34 2.01 -0.68 1.02 0 0 Z " fill="#41337F" transform="translate(121,23)"/>
<path d="M0 0 C0.33 0.66 0.66 1.32 1 2 C-0.4375 4.625 -0.4375 4.625 -2 7 C-3.32 6.34 -4.64 5.68 -6 5 C-5.195625 4.360625 -4.39125 3.72125 -3.5625 3.0625 C-1.7249496 1.59396498 -1.7249496 1.59396498 0 0 Z " fill="#2F2074" transform="translate(61,172)"/>
<path d="M0 0 C1.32 0.66 2.64 1.32 4 2 C3.67 3.32 3.34 4.64 3 6 C1.68 5.34 0.36 4.68 -1 4 C-0.67 2.68 -0.34 1.36 0 0 Z " fill="#1B0D6A" transform="translate(39,76)"/>
<path d="M0 0 C-0.66 1.32 -1.32 2.64 -2 4 C-3.65 3.67 -5.3 3.34 -7 3 C-4.49955934 -0.00052879 -4.2621484 0 0 0 Z " fill="#20146E" transform="translate(116,30)"/>
<path d="M0 0 C0.66 0.33 1.32 0.66 2 1 C2 2.98 2 4.96 2 7 C1.01 7.33 0.02 7.66 -1 8 C-1.33 6.02 -1.66 4.04 -2 2 C-1.34 2 -0.68 2 0 2 C0 1.34 0 0.68 0 0 Z " fill="#B4AFAE" transform="translate(131,142)"/>
<path d="M0 0 C2.375 0.3125 2.375 0.3125 5 1 C5.66 1.99 6.32 2.98 7 4 C6.01 4.33 5.02 4.66 4 5 C1.8125 3.6875 1.8125 3.6875 0 2 C0 1.34 0 0.68 0 0 Z " fill="#CC7C18" transform="translate(68,117)"/>
<path d="M0 0 C1.32 0 2.64 0 4 0 C4 1.65 4 3.3 4 5 C3.01 5 2.02 5 1 5 C0.67 3.35 0.34 1.7 0 0 Z " fill="#F0D168" transform="translate(119,115)"/>
<path d="M0 0 C0.66 0.33 1.32 0.66 2 1 C2 1.66 2 2.32 2 3 C-2.625 5.125 -2.625 5.125 -6 4 C-4.02 2.68 -2.04 1.36 0 0 Z " fill="#46AC6F" transform="translate(72,105)"/>
<path d="M0 0 C0.33 0 0.66 0 1 0 C0.67 2.31 0.34 4.62 0 7 C-0.99 6.34 -1.98 5.68 -3 5 C-1.125 1.125 -1.125 1.125 0 0 Z " fill="#0C784C" transform="translate(107,67)"/>
</svg>
